<svg xmlns="http://www.w3.org/2000/svg" width="752px" height="752px" version="1.1" viewBox="0 0 752 752">
 <g>
  <path d="m272.36 413.08c-4.3945 0-7.9531-3.5625-7.9531-7.9531 0-4.3945 3.5625-7.9531 7.9531-7.9531 4.3945 0 7.9531 3.5625 7.9531 7.9531s-3.5586 7.9531-7.9531 7.9531z"/>
  <path d="m359.8 412.61c-4.1289 0-7.4727-3.3477-7.4727-7.4727 0-4.1289 3.3477-7.4727 7.4727-7.4727 4.1289 0 7.4727 3.3477 7.4727 7.4727s-3.3477 7.4727-7.4727 7.4727z"/>
  <path d="m486.7 333.06c14.012-9.0469 20.379-17.043 20.379-17.043s-6.6758-0.30469-20.746-1.3906c12.145-4.7656 20.469-19.426 20.469-19.426s-7.6445 1.3125-19.691-0.40234c7.6133-4.6797 18.266-18.016 18.266-18.016s-10.727 1.1641-19.34-1.7031c9.4062-5.6172 17.363-15.605 17.363-15.605s-14.473 2.6328-51.648-0.66016c-34.992-3.0977-40.059-9.9609-58.734-9.9609-17.902 12.949-43.945 25.887-73.551 43.156-11.113 6.4844-41.262 22.184-41.262 22.184 41.301 26.285 163.47 46.672 189.02 43.398 24.168-3.0938 38.516-23.398 38.516-23.398-0.003907-0.003906-9.125 1.2773-19.043-1.1328z"/>
  <path d="m324.52 399.14h-16.879c-1.8203 0-3.418-1.207-3.9219-2.957-3.9844-13.938-16.879-23.668-31.359-23.668-14.309 0-27.16 9.582-31.258 23.301-0.33203 1.1094-1.1172 2.0234-2.1602 2.5156-1.043 0.49609-2.2461 0.53125-3.3164 0.082031-7.9609-3.3164-23.219-9.7422-35.969-15.543-0.89062-0.40234-1.6016-1.1133-2.0117-2-4.1562-8.9844-6.4297-18.152-6.7812-22.863-0.12891-1.7148 0.83203-3.3242 2.4062-4.0273 16.148-7.2109 46.566-21.445 75.176-35.656 1.3633-0.67578 2.9922-0.53906 4.2227 0.36328 32.535 23.82 132.66 42.547 160.01 45.238 1.1953 0.11719 2.2773 0.75781 2.9609 1.7461s0.89062 2.2266 0.57812 3.3867l-0.83984 3.0781c-0.27344 1.0039-0.91797 1.8594-1.8047 2.4062l-36.82 22.527c-1.0625 0.64844-2.3633 0.77734-3.5273 0.35156-1.168-0.42578-2.0781-1.3633-2.4688-2.543-4.4453-13.379-16.887-22.363-30.957-22.363-14.48 0-27.379 9.7305-31.359 23.668-0.50391 1.75-2.1055 2.957-3.9219 2.957zm-13.93-8.1562h10.977c5.8711-15.824 21.172-26.629 38.23-26.629 15.883 0 30.105 9.1602 36.801 23.242l27.074-16.566c-32.934-4.5703-119.7-21.266-153.78-44.324-26.496 13.117-54.195 26.113-70.516 33.469 0.69531 3.7969 2.3008 9.6562 5.0469 15.906 10.461 4.7305 22.363 9.7891 30.391 13.156 6.3281-14.848 21.168-24.879 37.535-24.879 17.07 0 32.367 10.805 38.238 26.625z"/>
  <path d="m321.64 589.2c-2.1797 0-4.4844-0.046875-6.8477-0.13672-45.922-1.7852-50-17.668-53.594-31.688-0.29297-1.1523-0.59375-2.3047-0.91406-3.4492-3.2578-11.594-16.285-54.863-21.199-71.145-2.4727 1.5625-5.1914 2.3906-8 2.3906-8.7422 0-15.582-7.832-16.254-18.625-0.89453-14.34-8.6289-42.508-15.609-52.781-6.0742-8.9375-7.4766-19.293-3.4922-25.777 1.0742-1.7461 3.2734-2.4258 5.1484-1.582 13.984 6.3047 30.086 13.02 36.363 15.613 1.5 0.62109 2.4922 2.0703 2.5195 3.6953 0.3125 17.66 14.938 32.027 32.602 32.027 17.594 0 32.219-14.312 32.602-31.906 0.046875-2.2148 1.8555-3.9883 4.0781-3.9883h14.086c2.2148 0 4.0312 1.7695 4.0781 3.9883 0.38281 17.594 15.008 31.906 32.602 31.906 17.953 0 32.586-14.609 32.617-32.562 0.003907-1.4141 0.73828-2.7344 1.9492-3.4727l38.605-23.621c1.7109-1.0469 3.9219-0.69531 5.2227 0.82422 3.457 4.0352 6.3555 11.598 0.53516 24.695-8.7695 19.738-16.902 47.895-17.789 58.047-0.84766 9.7695-8.0508 17.422-16.395 17.422-1.1211 0-2.2344-0.14062-3.3242-0.42188-0.66797 2.0586-1.4414 4.4531-2.293 7.0938-7.4766 23.195-20 62.023-26.555 73.203-1.0664 1.8203-1.9766 3.7383-2.9375 5.7695-5.4336 11.48-11.59 24.48-47.805 24.48zm-80.539-117.93c0.23828 0 0.47266 0.019531 0.71094 0.0625 1.5156 0.26953 2.7461 1.3633 3.1914 2.8359 0.1875 0.62891 19.086 63.176 23.125 77.543 0.33594 1.2031 0.64844 2.4141 0.96094 3.6289 3.3047 12.891 6.1602 24.02 46.012 25.562 2.2578 0.089844 4.457 0.13281 6.5352 0.13281 31.051 0 35.398-9.1797 40.43-19.805 0.99609-2.1016 2.0234-4.2773 3.2734-6.4023 6.1016-10.41 18.934-50.199 25.824-71.582 1.5469-4.8086 2.832-8.7852 3.7227-11.461 0.40625-1.2227 1.375-2.1836 2.5938-2.5859 1.2227-0.40234 2.5664-0.19922 3.6211 0.54297 1.1016 0.78125 2.2578 1.1758 3.4336 1.1758 3.5625 0 7.7383-3.8125 8.2734-9.9727 0.95703-10.996 9.2266-39.887 18.461-60.652 1.7617-3.9648 3.3398-9.0391 2.2969-13.02l-33.074 20.234c-1.2461 21.367-19.039 38.383-40.703 38.383-20.648 0-38.023-15.77-40.469-35.895h-6.4961c-2.4453 20.121-19.82 35.895-40.469 35.895-21.168 0-38.852-16.508-40.617-37.332-6.6016-2.7422-18.625-7.7969-30.055-12.867-0.28906 3.5547 0.92188 8.543 4.2773 13.477 8.5938 12.641 16.125 42.734 17.008 56.859 0.44922 7.207 4.4219 10.977 8.1172 10.977 2.3672 0 4.7656-1.457 6.7539-4.1094 0.77734-1.0352 1.9883-1.625 3.2617-1.625z"/>
  <path d="m295.38 452.49c0.92969-2.0508 3.3398-2.9648 5.3945-2.0352 12.066 5.4609 24.691 5.1016 32.953-0.9375 1.8242-1.332 4.3711-0.92969 5.6953 0.88672 1.332 1.8203 0.93359 4.3711-0.88672 5.6953-5.7695 4.2148-13.047 6.3398-20.852 6.3398-6.5781 0-13.531-1.5117-20.27-4.5625-2.0508-0.91797-2.9648-3.3359-2.0352-5.3867zm34.07 82.211c-0.84766 0-20.859-0.046875-32.246-3.9609-2.1328-0.73047-3.2617-3.0508-2.5273-5.1797 0.73047-2.125 3.0508-3.2695 5.1797-2.5273 10.098 3.4727 29.398 3.5156 29.594 3.5156 2.2539 0 4.0781 1.8281 4.0781 4.0781-0.003907 2.25-1.8242 4.0742-4.0781 4.0742zm21.461-3.0273c-0.53516 0.14062-5.3008 1.4023-8.1758 1.6523-0.125 0.007812-0.24219 0.015625-0.35938 0.015625-2.0938 0-3.875-1.6016-4.0547-3.7227-0.19531-2.2461 1.4648-4.2188 3.707-4.4141 1.6367-0.14062 5.0234-0.9375 6.7773-1.4062 2.1797-0.57812 4.4141 0.71094 4.9922 2.8828 0.57812 2.1758-0.71094 4.4102-2.8867 4.9922zm29.398-54.98c-0.78906 0.76562-1.8125 1.1523-2.8359 1.1523-1.0664 0-2.125-0.41016-2.9258-1.2344-0.15625-0.15625-2-2.0742-4.4414-4.9492-19.23 12.137-37.797 16.398-54.332 16.398-19.832 0-36.746-6.0938-48.453-11.973-0.30469 0.51562-0.60938 1.0273-0.92188 1.543-0.78906 1.3203-1.6133 2.6953-2.4727 4.2344-0.74219 1.3398-2.1367 2.0977-3.5664 2.0977-0.67188 0-1.3516-0.16406-1.9766-0.51563-1.9688-1.0938-2.6758-3.5742-1.582-5.5469 0.89844-1.6211 1.7695-3.0742 2.6055-4.4648 2.3047-3.8516 4.1289-6.8906 5.6641-11.953 0.65234-2.1562 2.9297-3.375 5.0859-2.7188 2.1562 0.65234 3.3711 2.9297 2.7188 5.0859-0.5625 1.8594-1.1758 3.4922-1.8086 4.9922 19.715 9.8711 55.328 20.324 93.965-3.6211-1.207-1.6562-2.4023-3.3984-3.4844-5.1797-1.1758-1.9219-0.56641-4.4336 1.3555-5.6055 1.9219-1.1758 4.4336-0.56641 5.6055 1.3555 4.6797 7.6523 11.836 15.07 11.906 15.145 1.5508 1.6055 1.5117 4.1875-0.10547 5.7578z"/>
  <path d="m358.04 210.46c-25.828 17.172-151.77 81.594-179.86 91.969-7.6992 4.0781-4.9805 17.668-0.90625 28.992 4.0781 11.328 7.4766 14.273 12.914 16.992 0 0.3125 86.93-39.492 117.66-56.637 29.934-16.699 85.363-50.324 84.539-50.465 3.1719-4.9805-6.707-15.902-13.5-25.418-6.8047-9.5117-20.844-5.4336-20.844-5.4336z"/>
  <path d="m240.11 198.07c1.0859-0.36328 2.1719-0.75781 3.2695-1.1641-1.1211 0.35547-2.2109 0.73828-3.2695 1.1641z"/>
  <path d="m321.78 198.21c-11.387-1.3125-24.961 0-52.117-3.0625-11.078-1.25-19.309-0.45312-26.277 1.7539-1.0938 0.40625-2.1836 0.80469-3.2695 1.1641-23.012 7.7305-38.832 20.812-47.168 41.285-1.332 7.4648-1.8203 17.395-5.6172 21.488-5.6914 6.1328-16.859 19.293-11.168 32.43 27.156-10.031 143.73-69.25 168.7-85.852 0 0-11.695-7.8945-23.078-9.207z"/>
  <path d="m184.55 236.78 0.17578-0.42969c9.1875-22.551 26.508-37.828 52.949-46.715 0.33984-0.11328 0.69922-0.24219 1.0742-0.375-5.2344-15.336-19.766-26.371-36.879-26.371-21.527 0-38.977 17.449-38.977 38.977 0 15.301 8.8203 28.535 21.656 34.914z"/>
 </g>
</svg>